<svg width="24.000000" height="23.000000" viewBox="0 0 24 23" fill="#787D85" xmlns="http://www.w3.org/2000/svg" xmlns:xlink="http://www.w3.org/1999/xlink">
	<desc>
			Created with Pixso.
	</desc>
	<defs>
		<clipPath id="clip1_279">
			<rect id="cloud-computing (1) 1" width="24.000000" height="22.498169" fill="white" fill-opacity="0"/>
		</clipPath>
	</defs>
	<rect id="cloud-computing (1) 1" width="24.000000" height="22.498169" fill="#FFFFFF" fill-opacity="0"/>
	<g clip-path="url(#clip1_279)">
		<path id="Vector" d="M5.05 3.74C5.05 3.74 5.05 3.74 5.05 3.74C4.86 3.74 4.69 3.81 4.55 3.94C4.42 4.07 4.34 4.24 4.34 4.42L4.34 14.48C4.34 14.84 4.66 15.15 5.06 15.15C6.72 15.15 9.51 15.48 11.44 17.36L11.44 6.84C11.44 6.71 11.41 6.59 11.34 6.5C9.76 4.11 6.72 3.75 5.05 3.74Z"  fill-opacity="1.000000" fill-rule="nonzero"/>
		<path id="Vector" d="M19.65 14.48L19.65 4.42C19.65 4.24 19.57 4.07 19.44 3.94C19.3 3.81 19.13 3.74 18.94 3.74C18.94 3.74 18.94 3.74 18.94 3.74C17.27 3.75 14.23 4.11 12.65 6.5C12.58 6.59 12.55 6.71 12.55 6.84L12.55 17.36C14.48 15.48 17.27 15.15 18.93 15.15C19.33 15.15 19.65 14.84 19.65 14.48Z"  fill-opacity="1.000000" fill-rule="nonzero"/>
		<path id="Vector" d="M21.28 6.06L20.76 6.06L20.76 14.48C20.76 15.42 19.94 16.19 18.94 16.19C17.52 16.19 15.19 16.45 13.54 17.91C16.4 17.26 19.4 17.69 21.12 18.05C21.33 18.1 21.55 18.05 21.73 17.92C21.9 17.79 22 17.6 22 17.4L22 6.74C22 6.37 21.67 6.06 21.28 6.06Z"  fill-opacity="1.000000" fill-rule="nonzero"/>
		<path id="Vector" d="M3.23 14.48L3.23 6.06L2.71 6.06C2.32 6.06 2 6.37 2 6.74L2 17.4C2 17.6 2.09 17.79 2.26 17.92C2.44 18.05 2.66 18.1 2.87 18.05C4.59 17.68 7.59 17.26 10.45 17.91C8.8 16.45 6.47 16.19 5.05 16.19C4.05 16.19 3.23 15.42 3.23 14.48Z"  fill-opacity="1.000000" fill-rule="nonzero"/>
	</g>
</svg>
