<svg width="24.000000" height="21.000000" viewBox="0 0 24 21" fill="#787D85" xmlns="http://www.w3.org/2000/svg" xmlns:xlink="http://www.w3.org/1999/xlink">
	<desc>
			Created with Pixso.
	</desc>
	<defs/>
	<path id="Vector" d="M12 10.89L5.67 8.35L5.67 10.18C5.67 12.19 8.39 13.7 12 13.7C15.6 13.7 18.32 12.19 18.32 10.18L18.32 8.35L12 10.89Z"  fill-opacity="1.000000" fill-rule="nonzero"/>
	<path id="Vector" d="M24 14.4C24 13.49 23.41 12.71 22.59 12.42L22.59 5.14L24 4.56L12 -0.26L0 4.56L12 9.37L21.18 5.7L21.18 12.42C20.37 12.71 19.78 13.49 19.78 14.4C19.78 15.24 20.27 15.96 20.98 16.3L19.81 19.8L21.15 20.25L21.89 18.03L22.63 20.25L23.96 19.8L22.79 16.3C23.5 15.96 24 15.24 24 14.4Z" fill-opacity="1.000000" fill-rule="nonzero"/>
</svg>
