<svg width="19.000000" height="13.000000" viewBox="0 0 19 13" fill="#787D85" xmlns="http://www.w3.org/2000/svg" xmlns:xlink="http://www.w3.org/1999/xlink">
	<desc>
			Created with Pixso.
	</desc>
	<defs/>
	<path id="Vector" d="M16.65 5.76C16.7 5.47 16.73 5.17 16.73 4.87C16.73 2.18 14.48 0 11.72 0C9.96 0 8.32 0.91 7.43 2.36C6.21 1.98 4.97 2.14 3.94 2.83C2.92 3.52 2.31 4.6 2.26 5.79C0.91 6.42 0 7.74 0 9.2C0 9.46 0.06 9.7 0.11 9.94L0.11 9.95C0.47 11.71 2.07 13 3.93 13L15.06 13C17.21 13 19 11.29 19 9.2C19 7.72 18.07 6.39 16.65 5.76Z"  fill-opacity="1.000000" fill-rule="nonzero"/>
</svg>
